<svg xmlns="http://www.w3.org/2000/svg" version="1.1" xmlns:xlink="http://www.w3.org/1999/xlink" xmlns:svgjs="http://svgjs.dev/svgjs" width="1000" height="623" viewBox="0 0 1000 623"><g transform="matrix(1,0,0,1,-0.6060606060606233,0.2522267206477409)"><svg viewBox="0 0 396 247" data-background-color="#ffffff" preserveAspectRatio="xMidYMid meet" height="623" width="1000" xmlns="http://www.w3.org/2000/svg" xmlns:xlink="http://www.w3.org/1999/xlink"><g id="tight-bounds" transform="matrix(1,0,0,1,0.2400000000000091,-0.09999999999999432)"><svg viewBox="0 0 395.52 247.2" height="247.2" width="395.52"><g><svg></svg></g><g><svg viewBox="0 0 395.52 247.2" height="247.2" width="395.52"><g><g><path xmlns="http://www.w3.org/2000/svg" d="M263.173 214.776c-22.162 21.608-54.043 32.412-95.643 32.412h-68.426l0-84.072 28.741 0v59.209h34.975c34.259 0 60.022-8.426 77.29-25.278 9.201-9.004 15.944-20.314 20.23-33.931h31.389c-5.197 20.974-14.716 38.194-28.556 51.66zM99.104 0.012h75.697c38.46 0 68.333 10.642 89.618 31.927 13.836 13.836 23.185 31.218 28.047 52.145h-31.283c-3.988-14.027-10.481-25.59-19.48-34.692-16.16-16.345-40.192-24.517-72.096-24.517h-41.762v59.209h-28.741z" fill="#00f6ff" fill-rule="nonzero" stroke="none" stroke-width="1" stroke-linecap="butt" stroke-linejoin="miter" stroke-miterlimit="10" stroke-dasharray="" stroke-dashoffset="0" font-family="none" font-weight="none" font-size="none" text-anchor="none" style="mix-blend-mode: normal" data-fill-palette-color="tertiary"></path></g></g><g transform="matrix(1,0,0,1,0,96.75737145810007)"><svg viewBox="0 0 395.52 53.68525708379984" height="53.68525708379984" width="395.52"><g><svg viewBox="0 0 395.52 53.68525708379984" height="53.68525708379984" width="395.52"><g><svg viewBox="0 0 395.52 53.68525708379984" height="53.68525708379984" width="395.52"><g><svg viewBox="0 0 395.52 53.68525708379984" height="53.68525708379984" width="395.52"><g id="textblocktransform"><svg viewBox="0 0 395.52 53.68525708379984" height="53.68525708379984" width="395.52" id="textblock"><g><svg viewBox="0 0 395.52 53.68525708379984" height="53.68525708379984" width="395.52"><g transform="matrix(1,0,0,1,0,0)"><svg width="395.52" viewBox="2.809999942779541 -37.9900016784668 283.45001220703125 38.480003356933594" height="53.68525708379984" data-palette-color="#00f6ff"><path d="M23.05 0L22.51-3.59 22.29-3.59Q19.48 0.49 13.89 0.49L13.89 0.49Q8.64 0.49 5.73-3.1 2.81-6.69 2.81-13.31L2.81-13.31Q2.81-19.92 5.74-23.58 8.67-27.25 13.89-27.25L13.89-27.25Q19.34-27.25 22.24-23.29L22.24-23.29 22.56-23.29 22.39-25.22 22.29-27.1 22.29-37.99 26.34-37.99 26.34 0 23.05 0ZM14.4-2.91L14.4-2.91Q18.55-2.91 20.42-5.16 22.29-7.42 22.29-12.45L22.29-12.45 22.29-13.31Q22.29-18.99 20.4-21.42 18.51-23.85 14.36-23.85L14.36-23.85Q10.79-23.85 8.9-21.08 7.01-18.31 7.01-13.26L7.01-13.26Q7.01-8.13 8.89-5.52 10.77-2.91 14.4-2.91ZM55.44-3.71L55.44 0 35.54 0 35.54-35.69 55.44-35.69 55.44-32.01 39.69-32.01 39.69-20.51 54.49-20.51 54.49-16.85 39.69-16.85 39.69-3.71 55.44-3.71ZM75.19-18.8L87.1 0 82.39 0 72.8-15.7 63.03 0 58.64 0 70.5-18.65 59.44-35.69 64.03-35.69 72.9-21.56 81.83-35.69 86.25-35.69 75.19-18.8ZM107.49-32.5L107.49-32.5Q101.6-32.5 98.2-28.58 94.79-24.66 94.79-17.85L94.79-17.85Q94.79-10.84 98.08-7.02 101.36-3.2 107.44-3.2L107.44-3.2Q111.17-3.2 115.96-4.54L115.96-4.54 115.96-0.9Q112.25 0.49 106.8 0.49L106.8 0.49Q98.92 0.49 94.63-4.3 90.35-9.08 90.35-17.9L90.35-17.9Q90.35-23.41 92.41-27.56 94.47-31.71 98.37-33.96 102.26-36.21 107.54-36.21L107.54-36.21Q113.15-36.21 117.35-34.16L117.35-34.16 115.59-30.59Q111.54-32.5 107.49-32.5ZM150.84-35.69L150.84 0 146.69 0 146.69-16.8 127.9-16.8 127.9 0 123.74 0 123.74-35.69 127.9-35.69 127.9-20.51 146.69-20.51 146.69-35.69 150.84-35.69ZM187.37 0L183.07 0 178.63-11.35 164.32-11.35 159.92 0 155.72 0 169.84-35.84 173.33-35.84 187.37 0ZM165.78-15.09L177.33-15.09 173.18-26.15Q172.38-28.25 171.52-31.3L171.52-31.3Q170.98-28.96 169.98-26.15L169.98-26.15 165.78-15.09ZM220.15-35.69L220.15 0 215.41 0 195.91-29.96 195.71-29.96Q196.1-24.68 196.1-20.29L196.1-20.29 196.1 0 192.27 0 192.27-35.69 196.96-35.69 216.42-5.86 216.61-5.86Q216.56-6.52 216.39-10.1 216.22-13.67 216.27-15.21L216.27-15.21 216.27-35.69 220.15-35.69ZM245.66-14.99L245.66-18.7 257.8-18.7 257.8-1.34Q254.96-0.44 252.03 0.02 249.1 0.49 245.25 0.49L245.25 0.49Q237.14 0.49 232.62-4.33 228.11-9.16 228.11-17.85L228.11-17.85Q228.11-23.41 230.34-27.6 232.58-31.79 236.77-34 240.97-36.21 246.61-36.21L246.61-36.21Q252.33-36.21 257.26-34.11L257.26-34.11 255.65-30.44Q250.81-32.5 246.34-32.5L246.34-32.5Q239.83-32.5 236.16-28.61 232.5-24.73 232.5-17.85L232.5-17.85Q232.5-10.62 236.03-6.88 239.56-3.15 246.39-3.15L246.39-3.15Q250.1-3.15 253.64-4L253.64-4 253.64-14.99 245.66-14.99ZM286.26-3.71L286.26 0 266.36 0 266.36-35.69 286.26-35.69 286.26-32.01 270.51-32.01 270.51-20.51 285.31-20.51 285.31-16.85 270.51-16.85 270.51-3.71 286.26-3.71Z" opacity="1" transform="matrix(1,0,0,1,0,0)" fill="#00f6ff" class="undefined-text-0" data-fill-palette-color="primary" id="text-0"></path></svg></g></svg></g></svg></g></svg></g></svg></g></svg></g></svg></g></svg></g><defs></defs></svg><rect width="395.52" height="247.2" fill="none" stroke="none" visibility="hidden"></rect></g></svg></g></svg>